<svg width="80" height="80" viewBox="0 0 80 80" fill="none" xmlns="http://www.w3.org/2000/svg">
<g clip-path="url(#clip0_102_460)">
<rect width="80" height="80" rx="40" fill="url(#paint0_linear_102_460)"/>
<path d="M48.5336 46.9333V52.9333C48.5336 54.0888 31.4669 53.7003 31.4669 52.0341C31.4669 50.4661 31.4989 43.3605 31.4669 36.0501C27.645 31.0963 27.645 28 30.6669 24.8C33.6888 21.6 55.2002 20 55.2002 20C55.2002 20 56.8141 35.5227 57.0669 39.7333C57.1685 41.4267 58.2669 46.9333 54.0002 46.9333H48.5336Z" fill="url(#paint1_linear_102_460)"/>
<g style="mix-blend-mode:multiply">
<path d="M48.5268 46.4208C45.0524 46.0417 41.6947 44.945 38.6665 43.2C38.6665 43.2 40.7998 48.2667 48.5268 49.6416V46.4208Z" fill="#FFD7B8"/>
</g>
<path d="M68 64.8819C69.6924 68.3231 71.0258 74.012 72 81.9485H8C8.97458 74.0111 10.3079 68.3222 12 64.8819C13.6864 61.4525 29.3333 54.8528 29.3333 54.8528C29.3333 54.8528 29.6448 51.836 30.4 51.4035C31.1552 50.9709 48.7005 50.9712 49.6 51.4035C50.4995 51.8357 50.6667 54.8512 50.6667 54.8512C50.6667 54.8512 66.3168 61.4597 68 64.8819Z" fill="url(#paint2_linear_102_460)"/>
<path d="M34.9387 28.0549C34.0907 27.3267 33.0603 26.8363 31.6038 27.5931C28.1507 29.3859 30.4425 36.3027 34.3067 36.1677C35.6401 36.1213 35.0289 38.7784 31.4667 40.5333C31.4667 37.7333 27.2001 30.8 26.8267 24.4875C22.5334 22.8888 23.6001 16.4923 26.5475 16.4923C26.0771 10.628 35.4667 7.5992 39.1025 10.9643C42.8001 6.53254 52.1334 8.7992 52.6969 12.644C59.1147 9.21814 63.3334 19.0659 57.3241 22.8888C54.8513 24.4621 49.0667 25.0608 40.7166 25.0608C36.7097 25.0608 39.0139 34.4395 40.2667 37.4667C41.8667 41.3333 50.8001 41.8667 53.6001 41.4667C55.7867 41.1544 56.9334 40.2667 57.0667 39.7333C59.0667 45.0667 56.5334 48.2667 52.5334 48.2667C45.7334 48.2667 38.9334 46.2667 37.8667 41.3333C37.0177 37.4072 37.0643 31.0709 34.9387 28.0549Z" fill="url(#paint3_linear_102_460)"/>
</g>
<defs>
<linearGradient id="paint0_linear_102_460" x1="40" y1="0" x2="40" y2="80" gradientUnits="userSpaceOnUse">
<stop stop-color="#1D0024"/>
<stop offset="1" stop-color="#100014"/>
</linearGradient>
<linearGradient id="paint1_linear_102_460" x1="42.8795" y1="20" x2="42.8795" y2="53.5965" gradientUnits="userSpaceOnUse">
<stop stop-color="#FFD4B3"/>
<stop offset="1" stop-color="#FFDCC2"/>
</linearGradient>
<linearGradient id="paint2_linear_102_460" x1="40" y1="51.0792" x2="40" y2="81.9485" gradientUnits="userSpaceOnUse">
<stop stop-color="#806A6A"/>
<stop offset="1" stop-color="#665654"/>
</linearGradient>
<linearGradient id="paint3_linear_102_460" x1="42.093" y1="48.2667" x2="42.093" y2="8.53186" gradientUnits="userSpaceOnUse">
<stop stop-color="#E6864E"/>
<stop offset="1" stop-color="#E67240"/>
</linearGradient>
<clipPath id="clip0_102_460">
<rect width="80" height="80" rx="40" fill="white"/>
</clipPath>
</defs>
</svg>
