<svg width="27" height="27" viewBox="0 0 27 27" fill="none" xmlns="http://www.w3.org/2000/svg">
<path d="M24.1275 15.0404C23.9316 14.8214 23.8236 14.5399 23.8236 14.2485C23.8236 13.957 23.9316 13.6755 24.1275 13.4566L25.6909 11.7288C25.8632 11.54 25.9702 11.3025 25.9965 11.0503C26.0228 10.7981 25.9672 10.5442 25.8375 10.325L23.3946 6.17357C23.2662 5.95463 23.0708 5.78108 22.8361 5.67766C22.6014 5.57425 22.3395 5.54625 22.0876 5.59765L19.7913 6.05359C19.4991 6.11289 19.195 6.06509 18.9362 5.91921C18.6774 5.77332 18.4819 5.53944 18.3867 5.2617L17.6416 3.06599C17.5596 2.82768 17.4035 2.62069 17.1953 2.47429C16.9871 2.32788 16.7373 2.24946 16.4812 2.25011H11.5954C11.3291 2.23645 11.0655 2.30881 10.8449 2.45613C10.6244 2.60346 10.459 2.81765 10.374 3.06599L9.68998 5.2617C9.59471 5.53944 9.39924 5.77332 9.14047 5.91921C8.88169 6.06509 8.57751 6.11289 8.28532 6.05359L5.92793 5.59765C5.6892 5.56451 5.44583 5.60152 5.22847 5.704C5.01111 5.80649 4.82949 5.96987 4.70649 6.17357L2.2636 10.325C2.13065 10.5418 2.07088 10.7942 2.09282 11.0464C2.11475 11.2985 2.21728 11.5374 2.38574 11.7288L3.93698 13.4566C4.1328 13.6755 4.24079 13.957 4.24079 14.2485C4.24079 14.5399 4.1328 14.8214 3.93698 15.0404L2.38574 16.7681C2.21728 16.9596 2.11475 17.1984 2.09282 17.4506C2.07088 17.7027 2.13065 17.9552 2.2636 18.1719L4.70649 22.3234C4.83486 22.5423 5.03031 22.7159 5.26499 22.8193C5.49967 22.9227 5.7616 22.9507 6.01343 22.8993L8.30975 22.4434C8.60194 22.3841 8.90612 22.4319 9.1649 22.5777C9.42367 22.7236 9.61914 22.9575 9.71441 23.2353L10.4595 25.431C10.5445 25.6793 10.7099 25.8935 10.9304 26.0408C11.151 26.1881 11.4146 26.2605 11.6809 26.2468H16.5667C16.8228 26.2475 17.0726 26.1691 17.2808 26.0227C17.489 25.8763 17.6451 25.6693 17.7271 25.431L18.4722 23.2353C18.5674 22.9575 18.7629 22.7236 19.0217 22.5777C19.2805 22.4319 19.5846 22.3841 19.8768 22.4434L22.1731 22.8993C22.425 22.9507 22.6869 22.9227 22.9216 22.8193C23.1563 22.7159 23.3517 22.5423 23.4801 22.3234L25.923 18.1719C26.0527 17.9527 26.1083 17.6988 26.082 17.4466C26.0557 17.1944 25.9487 16.9569 25.7764 16.7681L24.1275 15.0404ZM22.3075 16.6481L23.2847 17.728L21.7212 20.3916L20.2799 20.1037C19.4002 19.927 18.4851 20.0738 17.7083 20.5162C16.9315 20.9585 16.347 21.6657 16.0659 22.5033L15.6018 23.8472H12.4749L12.0352 22.4794C11.754 21.6417 11.1696 20.9345 10.3928 20.4922C9.616 20.0498 8.70088 19.903 7.82117 20.0797L6.37987 20.3676L4.79199 17.716L5.76914 16.6361C6.37004 15.9762 6.70224 15.1219 6.70224 14.2365C6.70224 13.3511 6.37004 12.4967 5.76914 11.8368L4.79199 10.7569L6.35544 8.11731L7.79674 8.40527C8.67645 8.58191 9.59157 8.43512 10.3684 7.99276C11.1452 7.5504 11.7296 6.84327 12.0107 6.00559L12.4749 4.64978H15.6018L16.0659 6.01759C16.347 6.85527 16.9315 7.5624 17.7083 8.00476C18.4851 8.44712 19.4002 8.59391 20.2799 8.41727L21.7212 8.12931L23.2847 10.7929L22.3075 11.8728C21.7134 12.5312 21.3853 13.3806 21.3853 14.2605C21.3853 15.1403 21.7134 15.9897 22.3075 16.6481ZM14.0383 9.44913C13.072 9.44913 12.1274 9.7306 11.3239 10.258C10.5205 10.7853 9.89425 11.5349 9.52445 12.4118C9.15466 13.2888 9.0579 14.2538 9.24642 15.1848C9.43494 16.1158 9.90027 16.9709 10.5836 17.6421C11.2668 18.3133 12.1374 18.7704 13.0852 18.9556C14.0329 19.1408 15.0153 19.0457 15.908 18.6825C16.8008 18.3192 17.5638 17.7041 18.1007 16.9148C18.6376 16.1256 18.9241 15.1977 18.9241 14.2485C18.9241 12.9756 18.4094 11.7549 17.4931 10.8548C16.5768 9.95477 15.3341 9.44913 14.0383 9.44913ZM14.0383 16.6481C13.5552 16.6481 13.0829 16.5074 12.6811 16.2437C12.2794 15.98 11.9663 15.6053 11.7814 15.1668C11.5965 14.7283 11.5481 14.2458 11.6424 13.7803C11.7366 13.3148 11.9693 12.8872 12.3109 12.5516C12.6526 12.216 13.0879 11.9875 13.5617 11.8949C14.0356 11.8023 14.5268 11.8498 14.9732 12.0315C15.4196 12.2131 15.8011 12.5207 16.0695 12.9153C16.3379 13.3099 16.4812 13.7739 16.4812 14.2485C16.4812 14.8849 16.2238 15.4953 15.7657 15.9453C15.3076 16.3953 14.6862 16.6481 14.0383 16.6481Z" fill="white"/>
</svg>
